<svg xmlns="http://www.w3.org/2000/svg" viewBox="0 0 800 450" role="img" aria-label="Release readiness scored across eight dimensions with true blockers separated, ending in a launch decision."><defs><linearGradient id="bg" x1="0" y1="0" x2="1" y2="1"><stop offset="0" stop-color="#061429"/><stop offset="1" stop-color="#0c2e63"/></linearGradient></defs><rect width="800" height="450" fill="url(#bg)"/><text x="44" y="56" fill="#a9c6ff" font-family="Inter,Segoe UI,Arial,sans-serif" font-size="20" font-weight="800" letter-spacing="1.3">EVIDENCE BEFORE LAUNCH</text><text x="44" y="84" fill="#6f8fc4" font-family="Inter,Segoe UI,Arial,sans-serif" font-size="14.5" font-weight="600">Score readiness, separate blockers — then decide.</text><rect x="64" y="120" width="320" height="36" rx="9" fill="#0e2c57"/><circle cx="86" cy="138" r="11" fill="#4f86f7"/><text x="86" y="142" fill="#08152e" font-family="Inter,Segoe UI,Arial,sans-serif" font-size="13" font-weight="800" text-anchor="middle">&#10003;</text><text x="108" y="143" fill="#e3ecff" font-family="Inter,Segoe UI,Arial,sans-serif" font-size="14" font-weight="600">Scope</text><rect x="408" y="120" width="320" height="36" rx="9" fill="#0e2c57"/><circle cx="430" cy="138" r="11" fill="#4f86f7"/><text x="430" y="142" fill="#08152e" font-family="Inter,Segoe UI,Arial,sans-serif" font-size="13" font-weight="800" text-anchor="middle">&#10003;</text><text x="452" y="143" fill="#e3ecff" font-family="Inter,Segoe UI,Arial,sans-serif" font-size="14" font-weight="600">Test coverage</text><rect x="64" y="164" width="320" height="36" rx="9" fill="#0e2c57"/><circle cx="86" cy="182" r="11" fill="#e0a55a"/><text x="86" y="186" fill="#08152e" font-family="Inter,Segoe UI,Arial,sans-serif" font-size="13" font-weight="800" text-anchor="middle">!</text><text x="108" y="187" fill="#e3ecff" font-family="Inter,Segoe UI,Arial,sans-serif" font-size="14" font-weight="600">Evidence</text><rect x="408" y="164" width="320" height="36" rx="9" fill="#0e2c57"/><circle cx="430" cy="182" r="11" fill="#4f86f7"/><text x="430" y="186" fill="#08152e" font-family="Inter,Segoe UI,Arial,sans-serif" font-size="13" font-weight="800" text-anchor="middle">&#10003;</text><text x="452" y="187" fill="#e3ecff" font-family="Inter,Segoe UI,Arial,sans-serif" font-size="14" font-weight="600">Data</text><rect x="64" y="208" width="320" height="36" rx="9" fill="#0e2c57"/><circle cx="86" cy="226" r="11" fill="#e0a55a"/><text x="86" y="230" fill="#08152e" font-family="Inter,Segoe UI,Arial,sans-serif" font-size="13" font-weight="800" text-anchor="middle">!</text><text x="108" y="231" fill="#e3ecff" font-family="Inter,Segoe UI,Arial,sans-serif" font-size="14" font-weight="600">Environments</text><rect x="408" y="208" width="320" height="36" rx="9" fill="#0e2c57"/><circle cx="430" cy="226" r="11" fill="#4f86f7"/><text x="430" y="230" fill="#08152e" font-family="Inter,Segoe UI,Arial,sans-serif" font-size="13" font-weight="800" text-anchor="middle">&#10003;</text><text x="452" y="231" fill="#e3ecff" font-family="Inter,Segoe UI,Arial,sans-serif" font-size="14" font-weight="600">SMEs</text><rect x="64" y="252" width="320" height="36" rx="9" fill="#0e2c57"/><circle cx="86" cy="270" r="11" fill="#e0a55a"/><text x="86" y="274" fill="#08152e" font-family="Inter,Segoe UI,Arial,sans-serif" font-size="13" font-weight="800" text-anchor="middle">!</text><text x="108" y="275" fill="#e3ecff" font-family="Inter,Segoe UI,Arial,sans-serif" font-size="14" font-weight="600">Defects</text><rect x="408" y="252" width="320" height="36" rx="9" fill="#0e2c57"/><circle cx="430" cy="270" r="11" fill="#4f86f7"/><text x="430" y="274" fill="#08152e" font-family="Inter,Segoe UI,Arial,sans-serif" font-size="13" font-weight="800" text-anchor="middle">&#10003;</text><text x="452" y="275" fill="#e3ecff" font-family="Inter,Segoe UI,Arial,sans-serif" font-size="14" font-weight="600">Signoff</text><text x="400" y="324" fill="#7f9fce" font-family="Inter,Segoe UI,Arial,sans-serif" font-size="13" font-weight="700" letter-spacing="0.5" text-anchor="middle">LAUNCH DECISION</text><rect x="167.75" y="342" width="86.5" height="30" rx="15" fill="#0e2c57" stroke="#3f63a8" stroke-width="1.3"/><text x="211" y="361.375" fill="#cfe0ff" font-family="Inter,Segoe UI,Arial,sans-serif" font-size="12.5" font-weight="700" text-anchor="middle">Proceed</text><rect x="266.25" y="342" width="206.5" height="30" rx="15" fill="#16356b" stroke="#7b8cff" stroke-width="1.3"/><text x="369.5" y="361.375" fill="#dbe4ff" font-family="Inter,Segoe UI,Arial,sans-serif" font-size="12.5" font-weight="700" text-anchor="middle">Proceed with conditions</text><rect x="484.75" y="342" width="64" height="30" rx="15" fill="#0e2c57" stroke="#3f63a8" stroke-width="1.3"/><text x="516.75" y="361.375" fill="#cfe0ff" font-family="Inter,Segoe UI,Arial,sans-serif" font-size="12.5" font-weight="700" text-anchor="middle">Hold</text><rect x="560.75" y="342" width="71.5" height="30" rx="15" fill="#0e2c57" stroke="#3f63a8" stroke-width="1.3"/><text x="596.5" y="361.375" fill="#cfe0ff" font-family="Inter,Segoe UI,Arial,sans-serif" font-size="12.5" font-weight="700" text-anchor="middle">No-go</text><text x="400" y="430" fill="#5d7fc4" font-family="Inter,Segoe UI,Arial,sans-serif" font-size="12" font-weight="600" text-anchor="middle">Artifact: launch decision brief · Release Readiness UAT Governance Pack</text></svg>